<svg xmlns="http://www.w3.org/2000/svg" fill="none" viewBox="0 0 198 43"><g fill="#000" clip-path="url(#a)"><path d="M65.641 28.382c-.853 0-1.137-.285-1.137-1.72V14.335c0-2.296-1.137-4.302-3.127-5.448-1.708-1.145-3.982-1.72-6.543-1.72-3.128 0-5.406.575-7.397 1.72-2.278 1.436-3.415 3.442-3.698 6.308v.286h5.406v-.286c.57-2.006 2.561-3.441 5.405-3.441 1.425 0 2.278.285 3.128.575 1.137.575 1.708 1.435 1.708 2.58 0 2.296-1.991 2.581-4.552 2.867-.854 0-1.708.285-2.562.285-2.277.286-4.551.575-6.259 1.721-1.99 1.146-2.844 3.152-2.844 6.022 0 4.873 4.268 7.168 8.25 7.168 2.561 0 5.976-.86 7.967-2.866.57 2.006 1.707 2.866 3.981 2.866h3.415v8.314h5.406V29.532c.854 1.146 1.991 2.006 3.415 2.58 1.424.576 2.845.861 4.552.861 3.415 0 5.977-1.435 7.967-3.727 1.708-2.295 2.561-5.447 2.561-8.599 0-3.726-.853-6.882-2.844-9.174-1.99-2.58-4.835-3.726-8.534-3.726-1.707 0-3.128.285-4.268.86-1.141.575-2.278 1.435-2.845 2.58V8.322H67.07V28.39h-1.425l-.004-.008ZM59.1 23.795c0 1.72-1.137 2.866-1.991 3.441-1.137.575-2.561 1.146-3.698 1.146-1.708 0-4.552-.575-4.552-2.866 0-2.867 1.99-3.441 4.268-3.727.57 0 1.425-.285 1.991-.285 1.708-.286 3.128-.286 4.269-1.146l-.284 3.441-.003-.004Zm19.915 4.587c-3.981 0-6.542-3.152-6.542-8.314 0-5.161 2.277-8.313 6.542-8.313s6.26 4.301 6.26 8.313c0 4.013-1.708 8.314-6.26 8.314ZM92.1 32.11h5.406V8.029H92.1v24.08Zm0-26.662h5.406V0H92.1v5.447Zm25.605 14.336c-1.425-1.146-3.415-1.72-5.406-2.006-.571 0-.854-.286-1.424-.286-3.415-.574-6.26-1.145-6.26-3.44 0-2.007 3.128-2.296 4.269-2.296 2.844 0 4.269.86 4.552 3.152h5.689v-.286c-.283-2.58-1.424-4.587-3.415-5.733-1.708-1.145-3.982-1.72-6.543-1.72-1.424 0-4.269.285-6.543 1.435-2.274 1.15-3.415 3.152-3.415 5.447 0 4.873 3.699 6.308 7.68 7.168.571 0 1.137.286 1.708.286 3.128.574 5.976 1.145 5.976 3.44 0 .576-.283 1.147-.571 1.721-1.137 1.146-3.415 1.146-4.552 1.146-3.127 0-4.835-1.435-5.122-4.012h-5.406v.285c0 2.867 1.137 4.873 3.128 6.308 1.707 1.435 4.552 2.006 7.397 2.006 2.844 0 5.405-.575 7.113-1.72 2.278-1.436 3.415-3.442 3.415-6.023.283-2.006-.571-3.726-2.278-4.872h.008ZM35.485 31.249 18.13 41.283.493 31.249V10.895L17.847.86l17.355 10.035.283 20.354Zm-18.492-11.47c-3.698.286-8.82 1.435-10.528 2.581-2.278 1.435-2.561 4.302-1.137 6.593 1.424 2.296 4.552 2.581 6.543 1.146 1.99-1.146 3.981-5.447 5.689-8.6 1.707 2.582 5.122 8.029 6.83 9.175 2.278 1.435 5.406.575 6.83-1.435 1.424-2.296.57-5.162-1.708-6.594-1.99-1.145-7.396-2.58-11.095-2.866 1.425-2.58 3.982-8.028 4.27-9.749 0-2.58-1.992-4.587-4.836-4.872-2.561 0-4.835 2.006-4.835 4.587 0 2.006 2.56 7.453 3.981 10.034M124.822 28.097c0 .575 0 1.145.283 1.435.283.575 1.137 1.146 2.278 1.146.57 0 1.137-.286 1.707-.575.571-.286.854-.86.854-1.72 0-.861-.57-1.436-1.424-1.721-.571-.286-1.424-.286-2.278-.286V24.37c1.137 0 1.707 0 2.278-.285.854-.286 1.137-.86 1.137-1.721 0-.575-.283-.86-.57-1.435-.284-.286-.854-.575-1.708-.575s-1.424.286-1.707.575c-.284.29-.571.86-.571 1.72h-3.128c0-.574.284-1.435.284-2.006.283-.574.57-1.145 1.137-1.435.283-.285.853-.575 1.424-.86.57-.285 1.424-.285 2.278-.285 1.707 0 2.844.285 3.981 1.145.854.575 1.425 1.72 1.425 2.867 0 .86-.284 1.435-.854 2.006-.284.285-.854.575-1.137.86.283 0 .853.286 1.424.575.854.575 1.137 1.435 1.137 2.58 0 1.146-.57 2.296-1.424 3.153-.854.86-2.561 1.435-4.269 1.435-2.278 0-3.982-.575-4.835-2.006-.571-.575-.854-1.721-.854-2.581h3.132ZM151.048 33.153a4.158 4.158 0 0 1-1.056 1.576 4.504 4.504 0 0 1-1.653.954c-.644.215-1.366.32-2.162.32a8.413 8.413 0 0 1-2.468-.36 7.971 7.971 0 0 1-2.212-1.082l.699-1.205a7.46 7.46 0 0 0 1.87.982c.652.227 1.347.34 2.092.34 1.141 0 2.053-.313 2.728-.935.679-.621 1.017-1.54 1.017-2.76v-1.224a6.451 6.451 0 0 1-1.653 1.544c-.652.43-1.448.642-2.391.642-.625 0-1.226-.11-1.8-.333a4.845 4.845 0 0 1-1.545-.962 4.786 4.786 0 0 1-1.087-1.537c-.271-.602-.407-1.282-.407-2.045 0-.762.136-1.447.407-2.057a4.676 4.676 0 0 1 1.087-1.544 4.79 4.79 0 0 1 1.552-.974 4.915 4.915 0 0 1 1.793-.34c.478 0 .92.059 1.324.172.403.113.768.266 1.094.45.326.187.621.406.885.66.264.255.504.52.718.802v-1.865h1.532v8.568c0 .844-.124 1.58-.368 2.21l.004.003Zm-1.425-7.555a3.507 3.507 0 0 0-.846-1.114 3.837 3.837 0 0 0-1.203-.712 4.008 4.008 0 0 0-1.412-.25c-.489 0-.955.082-1.385.242-.431.16-.812.395-1.138.704-.325.309-.582.68-.768 1.114a3.658 3.658 0 0 0-.279 1.455c0 .536.097 1.02.287 1.455.194.434.45.81.776 1.122.326.313.702.555 1.137.723.431.169.885.25 1.366.25a4.05 4.05 0 0 0 1.413-.25 3.89 3.89 0 0 0 1.203-.711c.353-.31.632-.68.846-1.115.213-.434.318-.919.318-1.454 0-.536-.105-1.021-.318-1.455l.003-.004ZM156.376 32.75h-1.533V22.376h1.533v2.71c.186-.427.419-.822.698-1.185.28-.36.598-.673.955-.935a3.962 3.962 0 0 1 1.176-.59 4.116 4.116 0 0 1 1.373-.18v1.666h-.12c-.559 0-1.086.101-1.583.3-.497.2-.932.501-1.304.904-.373.403-.664.9-.877 1.494-.214.594-.318 1.282-.318 2.057v4.133ZM172.159 29.65a5.51 5.51 0 0 1-1.126 1.735 5.187 5.187 0 0 1-1.711 1.174c-.664.289-1.382.43-2.15.43a5.242 5.242 0 0 1-2.131-.43 5.4 5.4 0 0 1-1.692-1.166 5.216 5.216 0 0 1-1.113-1.716 5.474 5.474 0 0 1-.4-2.089c0-.735.132-1.435.4-2.096a5.34 5.34 0 0 1 1.113-1.736 5.198 5.198 0 0 1 1.704-1.173c.656-.29 1.378-.43 2.162-.43.783 0 1.482.145 2.142.43.656.29 1.226.677 1.703 1.165a5.2 5.2 0 0 1 1.114 1.717c.264.657.4 1.353.4 2.088 0 .735-.136 1.435-.408 2.096h-.007ZM170.703 26a4.009 4.009 0 0 0-.807-1.29 3.87 3.87 0 0 0-1.215-.872 3.562 3.562 0 0 0-1.513-.32c-.543 0-1.067.101-1.533.308a3.367 3.367 0 0 0-1.183.86 4.12 4.12 0 0 0-.769 1.283 4.384 4.384 0 0 0-.279 1.572c0 .56.097 1.088.287 1.58.194.493.458.92.795 1.283.338.36.742.645 1.203.86.466.215.971.32 1.514.32s1.067-.1 1.533-.308a3.569 3.569 0 0 0 1.195-.852c.33-.36.59-.783.776-1.271.186-.49.28-1.01.28-1.572 0-.564-.097-1.088-.288-1.58h.004ZM182.644 22.375h1.514V32.75h-1.514v-1.807a4.839 4.839 0 0 1-1.354 1.436c-.559.394-1.281.59-2.169.59-.625 0-1.18-.102-1.665-.301a3.411 3.411 0 0 1-1.234-.853 3.744 3.744 0 0 1-.776-1.314 5.05 5.05 0 0 1-.268-1.685v-6.44h1.533v6.06c0 .963.244 1.725.737 2.288.493.563 1.195.845 2.111.845.439 0 .846-.078 1.226-.23a2.72 2.72 0 0 0 .974-.662c.272-.289.489-.633.648-1.032.16-.399.241-.845.241-1.326v-5.94l-.004-.004ZM197.581 29.84a5.26 5.26 0 0 1-1.106 1.698 4.81 4.81 0 0 1-3.396 1.435c-.477 0-.916-.059-1.315-.18a4.425 4.425 0 0 1-1.941-1.185 5.835 5.835 0 0 1-.687-.844v5.197h-1.532V22.376h1.532v2.088a8.07 8.07 0 0 1 .707-.884 4.392 4.392 0 0 1 1.932-1.232 4.27 4.27 0 0 1 1.304-.191 4.845 4.845 0 0 1 3.384 1.412 5.089 5.089 0 0 1 1.114 1.697c.279.668.419 1.43.419 2.287s-.14 1.62-.419 2.288h.004Zm-1.444-3.925a3.874 3.874 0 0 0-.788-1.267 3.446 3.446 0 0 0-2.549-1.087c-.489 0-.939.097-1.386.289a3.857 3.857 0 0 0-1.195.81 3.763 3.763 0 0 0-.838 1.259 4.213 4.213 0 0 0-.311 1.638c0 .598.101 1.15.311 1.646.206.5.485.923.838 1.267.353.345.749.614 1.195.81.447.191.905.29 1.386.29.481 0 .958-.09 1.405-.27.446-.18.83-.439 1.156-.779.326-.34.586-.758.776-1.259.194-.5.287-1.06.287-1.685 0-.626-.097-1.166-.287-1.658v-.004Z"/></g><defs><clipPath id="a"><path fill="#fff" d="M0 0h198v43H0z"/></clipPath></defs></svg>